<svg viewBox="0 0 461 133" xmlns="http://www.w3.org/2000/svg"><path d="M445.6 0c7.943.011 14.475 6.547 14.48 14.49V118c-.005 7.943-6.537 14.479-14.48 14.49H14.49C6.545 132.479.011 125.945 0 118V14.49C.011 6.545 6.545.011 14.49 0H445.6" fill="#090a11"/><path d="M160.78 32.57a9.336 9.336 0 0 1-2.57 6.91 10.003 10.003 0 0 1-7.6 3.06h-.081c-5.853 0-10.67-4.816-10.67-10.67l.001-.14-.001-.14c0-5.854 4.817-10.67 10.67-10.67h.081a10.671 10.671 0 0 1 4.25.87 8.578 8.578 0 0 1 3.24 2.31l-1.82 1.82a7.006 7.006 0 0 0-5.67-2.45h-.004c-4.389 0-8 3.611-8 8 0 .087.001.173.004.26l-.002.171c0 4.466 3.675 8.14 8.14 8.14 2.122 0 4.162-.83 5.682-2.311a6.563 6.563 0 0 0 1.74-4.2h-7.52V31h10c.092.518.135 1.044.13 1.57zm90.33 6.83c-4.162 4.159-11.008 4.159-15.17 0a10.583 10.583 0 0 1-3.05-7.67 10.607 10.607 0 0 1 3.05-7.67 10.713 10.713 0 0 1 15.16 0 10.587 10.587 0 0 1 3.06 7.66 10.586 10.586 0 0 1-3.05 7.68zm-74.43-15.47h-9.42v6.56h8.49V33h-8.49v6.56h9.42v2.55H164.6V21.38h12.08v2.55zm29.98 18.15H204v-20.7h2.66v20.7zm-12.99-18.15h-5.78v18.15h-2.66V23.93h-5.78v-2.55h14.22v2.55zm30.55 0h-5.78l-.03 18.15h-2.66V23.93H210v-2.55h14.22v2.55zm36.33 18.15h-2.66v-20.7h3.24l10.06 16.1h.11l-.11-4v-12.1h2.66v20.7h-2.78L260.55 25.2h-.11l.11 4v12.88zm-22.65-4.41c3.097 3.062 8.153 3.062 11.25 0a8.102 8.102 0 0 0 2.3-5.94 8.102 8.102 0 0 0-2.3-5.94c-3.097-3.062-8.153-3.062-11.25 0a8.106 8.106 0 0 0-2.29 5.94 8.106 8.106 0 0 0 2.29 5.94z" fill="#f6f6f9"/><path d="M232.24 72.26c-8.014.049-14.58 6.656-14.58 14.67 0 8.047 6.622 14.67 14.67 14.67S247 94.978 247 86.93l.002-.213c0-7.933-6.528-14.46-14.46-14.46-.101 0-.201.001-.302.003zm0 23.56c-4.45 0-8.28-3.67-8.28-8.89 0-5.22 3.83-8.93 8.28-8.93 4.45 0 8.27 3.61 8.27 8.89 0 5.28-3.83 8.93-8.27 8.93zm-32.13-23.56c-8.025.033-14.61 6.645-14.61 14.67 0 8.048 6.622 14.67 14.67 14.67s14.67-6.622 14.67-14.67l.002-.213c0-7.932-6.528-14.46-14.46-14.46-.091 0-.181.001-.272.003zm0 23.56c-4.44 0-8.27-3.67-8.27-8.89 0-5.22 3.83-8.93 8.27-8.93 4.44 0 8.28 3.61 8.28 8.89 0 5.28-3.83 8.93-8.28 8.93zM161.9 76.76V83h14.9a13.098 13.098 0 0 1-3.39 7.84 15.258 15.258 0 0 1-11.51 4.55c-8.928-.219-16.153-7.624-16.153-16.555 0-8.931 7.225-16.336 16.153-16.555a15.883 15.883 0 0 1 11.23 4.44l4.39-4.39A21.737 21.737 0 0 0 161.9 56c-12.55 0-23.11 10.22-23.11 22.78s10.56 22.78 23.11 22.78c6.78 0 11.9-2.22 15.9-6.39s5.39-9.89 5.39-14.56a20.46 20.46 0 0 0-.34-3.89l-20.95.04zm156.27 4.84c-1.22-3.28-4.95-9.34-12.56-9.34s-13.83 5.95-13.83 14.67c-.002.107-.004.214-.004.321 0 7.873 6.478 14.35 14.35 14.35l.204-.001c4.906.03 9.51-2.417 12.23-6.5l-5-3.34a8.39 8.39 0 0 1-7.23 4.06 7.474 7.474 0 0 1-7.11-4.45l19.62-8.11-.67-1.66zm-20 4.88a7.943 7.943 0 0 1-.019-.556c0-4.268 3.415-7.823 7.679-7.994 2.56 0 4.73 1.28 5.45 3.11l-13.11 5.44zm-15.95 14.23h6.44V57.59h-6.44v43.12zm-10.56-25.17h-.22a10.167 10.167 0 0 0-7.72-3.28c-7.34 0-14.06 6.45-14.06 14.72s6.72 14.62 14.06 14.62a10.003 10.003 0 0 0 7.72-3.34h.22v2.12c0 5.61-3 8.61-7.83 8.61a8.134 8.134 0 0 1-7.39-5.22l-5.61 2.33a14.024 14.024 0 0 0 13 8.67c7.55 0 13.94-4.45 13.94-15.28V73.15h-6.11v2.39zm-7.39 20.28c-4.44 0-8.17-3.72-8.17-8.84 0-5.12 3.73-8.98 8.17-8.98 4.44 0 7.84 3.78 7.84 8.94s-3.45 8.88-7.84 8.88zm84.09-38.23h-15.42v43.12h6.43V84.37h9c7.13 0 14.14-5.16 14.14-13.39s-7.02-13.39-14.15-13.39zm.17 20.78h-9.16V63.59h9.16c4.054 0 7.39 3.336 7.39 7.39s-3.336 7.39-7.39 7.39zm39.77-6.19c-4.66 0-9.49 2-11.48 6.6l5.71 2.39c1.22-2.39 3.47-3.17 5.88-3.17 3.33 0 6.71 2 6.77 5.54V84a14.202 14.202 0 0 0-6.72-1.67c-6.15 0-12.46 3.39-12.46 9.67 0 5.77 5 9.48 10.7 9.48a9.081 9.081 0 0 0 8.3-4.17h.23v3.33h6.21V84.11c-.05-7.66-5.76-11.93-13.14-11.93zm-.78 23.63c-2.11 0-5-1-5-3.66 0-3.33 3.66-4.6 6.83-4.6 2.037-.043 4.05.458 5.83 1.45-.496 3.845-3.784 6.767-7.66 6.81zM424 73.12l-7.38 18.7h-.22l-7.65-18.7h-6.94l11.48 26.13-6.54 14.53h6.71l17.7-40.66H424zm-58 27.59h6.44V57.59H366v43.12z" fill="#f6f6f9"/><path d="M33.23 23.24a6.91 6.91 0 0 0-1.59 4.84v76.28a6.947 6.947 0 0 0 1.59 4.85l.26.25 42.73-42.73v-1L33.49 23l-.26.24z" fill="url(#_Linear1)"/><path d="M90.46 81L76.22 66.73v-1l14.24-14.26.32.19 16.88 9.58c4.82 2.74 4.82 7.22 0 10l-16.88 9.55-.32.21z" fill="url(#_Linear2)"/><path d="M90.78 80.79L76.22 66.22l-43 43c1.59 1.68 4.21 1.89 7.17.21l50.39-28.64" fill="url(#_Linear3)"/><path d="M90.78 51.65L40.4 23c-3-1.68-5.58-1.47-7.17.21l43 43 14.55-14.56z" fill="url(#_Linear4)"/><defs><linearGradient id="_Linear1" x2="1" gradientUnits="userSpaceOnUse" gradientTransform="rotate(135 30.565 28.639) scale(81.86)"><stop offset="0" stop-color="#00a0ff"/><stop offset=".01" stop-color="#00a1ff"/><stop offset=".26" stop-color="#00beff"/><stop offset=".51" stop-color="#00d2ff"/><stop offset=".76" stop-color="#00dfff"/><stop offset="1" stop-color="#00e3ff"/></linearGradient><linearGradient id="_Linear2" x2="1" gradientUnits="userSpaceOnUse" gradientTransform="rotate(180 56.965 33.115) scale(83.45)"><stop offset="0" stop-color="#ffe000"/><stop offset=".41" stop-color="#ffbd00"/><stop offset=".78" stop-color="orange"/><stop offset="1" stop-color="#ff9c00"/></linearGradient><linearGradient id="_Linear3" x2="1" gradientUnits="userSpaceOnUse" gradientTransform="rotate(135 26.08 54.233) scale(111)"><stop offset="0" stop-color="#ff3a44"/><stop offset="1" stop-color="#c31162"/></linearGradient><linearGradient id="_Linear4" x2="1" gradientUnits="userSpaceOnUse" gradientTransform="rotate(45 13.802 25.976) scale(49.57)"><stop offset="0" stop-color="#32a071"/><stop offset=".07" stop-color="#2da771"/><stop offset=".48" stop-color="#15cf74"/><stop offset=".8" stop-color="#06e775"/><stop offset="1" stop-color="#00f076"/></linearGradient></defs></svg>
