<?xml version="1.0" encoding="UTF-8" standalone="no"?><!DOCTYPE svg PUBLIC "-//W3C//DTD SVG 1.1//EN" "http://www.w3.org/Graphics/SVG/1.1/DTD/svg11.dtd"><svg width="100%" height="100%" viewBox="0 0 461 133" version="1.1" xmlns="http://www.w3.org/2000/svg" xmlns:xlink="http://www.w3.org/1999/xlink" xml:space="preserve" xmlns:serif="http://www.serif.com/" style="fill-rule:evenodd;clip-rule:evenodd;stroke-linejoin:round;stroke-miterlimit:1.41421;"><path d="M445.6,0c7.943,0.011 14.475,6.547 14.48,14.49l0,103.51c-0.005,7.943 -6.537,14.479 -14.48,14.49l-431.11,0c-7.945,-0.011 -14.479,-6.545 -14.49,-14.49l0,-103.51c0.011,-7.945 6.545,-14.479 14.49,-14.49l431.11,0" style="fill-rule:nonzero;"/><path d="M160.78,32.57c0.128,2.557 -0.802,5.058 -2.57,6.91c-1.979,2.058 -4.747,3.172 -7.6,3.06c-0.027,0 -0.054,0 -0.081,0c-5.853,0 -10.67,-4.816 -10.67,-10.67c0,-0.046 0,-0.093 0.001,-0.14c-0.001,-0.047 -0.001,-0.094 -0.001,-0.14c0,-5.854 4.817,-10.67 10.67,-10.67c0.027,0 0.054,0 0.081,0c1.461,-0.004 2.908,0.292 4.25,0.87c1.246,0.505 2.356,1.297 3.24,2.31l-1.82,1.82c-1.407,-1.65 -3.504,-2.556 -5.67,-2.45c-0.001,0 -0.003,0 -0.004,0c-4.389,0 -8,3.611 -8,8c0,0.087 0.001,0.173 0.004,0.26c-0.001,0.057 -0.002,0.114 -0.002,0.171c0,4.466 3.675,8.14 8.14,8.14c2.122,0 4.162,-0.83 5.682,-2.311c1.062,-1.148 1.679,-2.638 1.74,-4.2l-7.52,0l0,-2.53l10,0c0.092,0.518 0.135,1.044 0.13,1.57Zm90.33,6.83c-4.162,4.159 -11.008,4.159 -15.17,0c-2.012,-2.037 -3.114,-4.807 -3.05,-7.67c-0.061,-2.863 1.04,-5.631 3.05,-7.67c2.008,-2.012 4.737,-3.144 7.58,-3.144c2.843,0 5.572,1.132 7.58,3.144c2.013,2.033 3.118,4.799 3.06,7.66c0.066,2.866 -1.035,5.64 -3.05,7.68Zm-74.43,-15.47l-9.42,0l0,6.56l8.49,0l0,2.51l-8.49,0l0,6.56l9.42,0l0,2.55l-12.08,0l0,-20.73l12.08,0l0,2.55Zm29.98,18.15l-2.66,0l0,-20.7l2.66,0l0,20.7Zm-12.99,-18.15l-5.78,0l0,18.15l-2.66,0l0,-18.15l-5.78,0l0,-2.55l14.22,0l0,2.55Zm30.55,0l-5.78,0l-0.03,18.15l-2.66,0l0,-18.15l-5.75,0l0,-2.55l14.22,0l0,2.55Zm36.33,18.15l-2.66,0l0,-20.7l3.24,0l10.06,16.1l0.11,0l-0.11,-4l0,-12.1l2.66,0l0,20.7l-2.78,0l-10.52,-16.88l-0.11,0l0.11,4l0,12.88Zm-22.65,-4.41c3.097,3.062 8.153,3.062 11.25,0c1.545,-1.582 2.377,-3.73 2.3,-5.94c0.077,-2.21 -0.755,-4.358 -2.3,-5.94c-3.097,-3.062 -8.153,-3.062 -11.25,0c-1.541,1.584 -2.369,3.731 -2.29,5.94c-0.079,2.209 0.749,4.356 2.29,5.94Z" style="fill:#fff;"/><path d="M232.24,72.26c-8.014,0.049 -14.58,6.656 -14.58,14.67c0,8.047 6.622,14.67 14.67,14.67c8.048,0 14.67,-6.622 14.67,-14.67c0.001,-0.071 0.002,-0.142 0.002,-0.213c0,-7.933 -6.528,-14.46 -14.46,-14.46c-0.101,0 -0.201,0.001 -0.302,0.003Zm0,23.56c-4.45,0 -8.28,-3.67 -8.28,-8.89c0,-5.22 3.83,-8.93 8.28,-8.93c4.45,0 8.27,3.61 8.27,8.89c0,5.28 -3.83,8.93 -8.27,8.93Zm-32.13,-23.56c-8.025,0.033 -14.61,6.645 -14.61,14.67c0,8.048 6.622,14.67 14.67,14.67c8.048,0 14.67,-6.622 14.67,-14.67c0.001,-0.071 0.002,-0.142 0.002,-0.213c0,-7.932 -6.528,-14.46 -14.46,-14.46c-0.091,0 -0.181,0.001 -0.272,0.003Zm0,23.56c-4.44,0 -8.27,-3.67 -8.27,-8.89c0,-5.22 3.83,-8.93 8.27,-8.93c4.44,0 8.28,3.61 8.28,8.89c0,5.28 -3.83,8.93 -8.28,8.93Zm-38.21,-19.06l0,6.24l14.9,0c-0.222,2.918 -1.416,5.68 -3.39,7.84c-3.02,3.074 -7.205,4.728 -11.51,4.55c-8.928,-0.219 -16.153,-7.624 -16.153,-16.555c0,-8.931 7.225,-16.336 16.153,-16.555c4.18,-0.057 8.219,1.54 11.23,4.44l4.39,-4.39c-4.141,-4.124 -9.776,-6.407 -15.62,-6.33c-12.55,0 -23.11,10.22 -23.11,22.78c0,12.56 10.56,22.78 23.11,22.78c6.78,0 11.9,-2.22 15.9,-6.39c4,-4.17 5.39,-9.89 5.39,-14.56c0.011,-1.305 -0.103,-2.607 -0.34,-3.89l-20.95,0.04Zm156.27,4.84c-1.22,-3.28 -4.95,-9.34 -12.56,-9.34c-7.61,0 -13.83,5.95 -13.83,14.67c-0.002,0.107 -0.004,0.214 -0.004,0.321c0,7.873 6.478,14.35 14.35,14.35c0.068,0 0.136,0 0.204,-0.001c4.906,0.03 9.51,-2.417 12.23,-6.5l-5,-3.34c-1.523,2.531 -4.276,4.077 -7.23,4.06c-3.052,0.115 -5.88,-1.655 -7.11,-4.45l19.62,-8.11l-0.67,-1.66Zm-20,4.88c-0.013,-0.185 -0.019,-0.371 -0.019,-0.556c0,-4.268 3.415,-7.823 7.679,-7.994c2.56,0 4.73,1.28 5.45,3.11l-13.11,5.44Zm-15.95,14.23l6.44,0l0,-43.12l-6.44,0l0,43.12Zm-10.56,-25.17l-0.22,0c-1.98,-2.153 -4.796,-3.349 -7.72,-3.28c-7.34,0 -14.06,6.45 -14.06,14.72c0,8.27 6.72,14.62 14.06,14.62c2.938,0.076 5.764,-1.147 7.72,-3.34l0.22,0l0,2.12c0,5.61 -3,8.61 -7.83,8.61c-3.288,-0.079 -6.216,-2.148 -7.39,-5.22l-5.61,2.33c2.163,5.254 7.319,8.692 13,8.67c7.55,0 13.94,-4.45 13.94,-15.28l0,-26.34l-6.11,0l0,2.39Zm-7.39,20.28c-4.44,0 -8.17,-3.72 -8.17,-8.84c0,-5.12 3.73,-8.98 8.17,-8.98c4.44,0 7.84,3.78 7.84,8.94c0,5.16 -3.45,8.88 -7.84,8.88Zm84.09,-38.23l-15.42,0l0,43.12l6.43,0l0,-16.34l9,0c7.13,0 14.14,-5.16 14.14,-13.39c0,-8.23 -7.02,-13.39 -14.15,-13.39Zm0.17,20.78l-9.16,0l0,-14.78l9.16,0c4.054,0 7.39,3.336 7.39,7.39c0,4.054 -3.336,7.39 -7.39,7.39c0,0 0,0 0,0Zm39.77,-6.19c-4.66,0 -9.49,2 -11.48,6.6l5.71,2.39c1.22,-2.39 3.47,-3.17 5.88,-3.17c3.33,0 6.71,2 6.77,5.54l0,0.46c-2.068,-1.103 -4.377,-1.676 -6.72,-1.67c-6.15,0 -12.46,3.39 -12.46,9.67c0,5.77 5,9.48 10.7,9.48c3.318,0.239 6.511,-1.365 8.3,-4.17l0.23,0l0,3.33l6.21,0l0,-16.53c-0.05,-7.66 -5.76,-11.93 -13.14,-11.93Zm-0.78,23.63c-2.11,0 -5,-1 -5,-3.66c0,-3.33 3.66,-4.6 6.83,-4.6c2.037,-0.043 4.05,0.458 5.83,1.45c-0.496,3.845 -3.784,6.767 -7.66,6.81Zm36.48,-22.69l-7.38,18.7l-0.22,0l-7.65,-18.7l-6.94,0l11.48,26.13l-6.54,14.53l6.71,0l17.7,-40.66l-7.16,0Zm-58,27.59l6.44,0l0,-43.12l-6.44,0l0,43.12Z" style="fill:#fff;fill-rule:nonzero;"/><path d="M33.23,23.24c-1.127,1.352 -1.696,3.084 -1.59,4.84l0,76.28c-0.105,1.759 0.464,3.494 1.59,4.85l0.26,0.25l42.73,-42.73l0,-1l-42.73,-42.73l-0.26,0.24Z" style="fill:url(#_Linear1);fill-rule:nonzero;"/><path d="M90.46,81l-14.24,-14.27l0,-1l14.24,-14.26l0.32,0.19l16.88,9.58c4.82,2.74 4.82,7.22 0,10l-16.88,9.55l-0.32,0.21Z" style="fill:url(#_Linear2);fill-rule:nonzero;"/><path d="M90.78,80.79l-14.56,-14.57l-43,43c1.59,1.68 4.21,1.89 7.17,0.21l50.39,-28.64" style="fill:url(#_Linear3);fill-rule:nonzero;"/><path d="M90.78,51.65l-50.38,-28.65c-3,-1.68 -5.58,-1.47 -7.17,0.21l43,43l14.55,-14.56Z" style="fill:url(#_Linear4);fill-rule:nonzero;"/><defs><linearGradient id="_Linear1" x1="0" y1="0" x2="1" y2="0" gradientUnits="userSpaceOnUse" gradientTransform="matrix(-57.89,57.88,-57.88,-57.89,72.43,27.28)"><stop offset="0" style="stop-color:#00a0ff;stop-opacity:1"/><stop offset="0.01" style="stop-color:#00a1ff;stop-opacity:1"/><stop offset="0.26" style="stop-color:#00beff;stop-opacity:1"/><stop offset="0.51" style="stop-color:#00d2ff;stop-opacity:1"/><stop offset="0.76" style="stop-color:#00dfff;stop-opacity:1"/><stop offset="1" style="stop-color:#00e3ff;stop-opacity:1"/></linearGradient><linearGradient id="_Linear2" x1="0" y1="0" x2="1" y2="0" gradientUnits="userSpaceOnUse" gradientTransform="matrix(-83.45,1.02197e-14,-1.02197e-14,-83.45,113.93,66.23)"><stop offset="0" style="stop-color:#ffe000;stop-opacity:1"/><stop offset="0.41" style="stop-color:#ffbd00;stop-opacity:1"/><stop offset="0.78" style="stop-color:#ffa500;stop-opacity:1"/><stop offset="1" style="stop-color:#ff9c00;stop-opacity:1"/></linearGradient><linearGradient id="_Linear3" x1="0" y1="0" x2="1" y2="0" gradientUnits="userSpaceOnUse" gradientTransform="matrix(-78.49,78.49,-78.49,-78.49,82.87,74.14)"><stop offset="0" style="stop-color:#ff3a44;stop-opacity:1"/><stop offset="1" style="stop-color:#c31162;stop-opacity:1"/></linearGradient><linearGradient id="_Linear4" x1="0" y1="0" x2="1" y2="0" gradientUnits="userSpaceOnUse" gradientTransform="matrix(35.05,35.05,-35.05,35.05,22.41,-2.15)"><stop offset="0" style="stop-color:#32a071;stop-opacity:1"/><stop offset="0.07" style="stop-color:#2da771;stop-opacity:1"/><stop offset="0.48" style="stop-color:#15cf74;stop-opacity:1"/><stop offset="0.8" style="stop-color:#06e775;stop-opacity:1"/><stop offset="1" style="stop-color:#00f076;stop-opacity:1"/></linearGradient></defs></svg>