<svg viewBox="0 0 460 132" xmlns="http://www.w3.org/2000/svg"><path d="M459.2 118.57c-.005 7.239-5.961 13.195-13.2 13.2H13.22c-7.245 0-13.209-5.955-13.22-13.2V13.23C.005 5.971 5.981 0 13.24 0H446c7.252 0 13.22 5.968 13.22 13.22V118.57h-.02z" fill="#090a11"/><path d="M100.84 65.16a19.351 19.351 0 0 0 11.79 17.76 44.183 44.183 0 0 1-6.13 12.49c-3.62 5.41-7.42 10.69-13.42 10.79-5.84.13-7.75-3.44-14.51-3.44s-8.73 3.36-14.46 3.57c-5.73.21-10.1-5.77-13.85-11.12-7.5-10.94-13.31-30.82-5.5-44.35a21.471 21.471 0 0 1 18.07-11c5.74-.13 11.12 3.87 14.58 3.87 3.46 0 10.04-4.77 16.82-4.06a20.483 20.483 0 0 1 16.13 8.72c-.42.25-9.62 5.66-9.52 16.77zM89.8 32.48a19.697 19.697 0 0 0 4.5-14.11c-4.36.19-9.82 3-13 6.71-2.77 3.25-5.26 8.57-4.62 13.58 4.94.34 9.98-2.47 13.12-6.18zM233.76 119.07h-7.36V83.39c0-3.54-.09-7.18-.27-10.9h6.47l.41 5.24h.14c2.45-4 6.16-5.92 11.16-5.92a12.318 12.318 0 0 1 9.78 4.63c2.607 3.093 3.91 7.157 3.91 12.19 0 5.633-1.523 10.08-4.57 13.34a13.314 13.314 0 0 1-10.14 4.36c-4.36 0-7.493-1.567-9.4-4.7h-.13v17.44zm-38.06 0h-7.35V83.39c0-3.54-.09-7.18-.27-10.9h6.46l.41 5.24h.14c2.447-3.947 6.17-5.92 11.17-5.92a12.275 12.275 0 0 1 9.74 4.63c2.633 3.093 3.947 7.157 3.94 12.19 0 5.633-1.52 10.08-4.56 13.34a13.314 13.314 0 0 1-10.14 4.36c-4.36 0-7.493-1.567-9.4-4.7h-.14v17.44zm165.75-30.31c0 5.087-1.453 9.263-4.36 12.53a15.557 15.557 0 0 1-12.12 5c-4.86 0-8.73-1.61-11.61-4.83A17.615 17.615 0 0 1 329 89.31c0-5.127 1.487-9.327 4.46-12.6 2.973-3.273 6.973-4.907 12-4.9a15.117 15.117 0 0 1 11.72 4.84c2.847 3.133 4.27 7.17 4.27 12.11zm-44.67-16.27h8.1V78h-8.1v16.08c0 4.08 1.42 6.13 4.29 6.13 1.096.02 2.191-.094 3.26-.34l.21 5.58c-1.845.6-3.781.874-5.72.81a8.792 8.792 0 0 1-6.81-2.65c-1.627-1.767-2.443-4.74-2.45-8.92V78h-4.83v-5.51h4.83v-6.06l7.22-2.18v8.24zm-16.21 20.23a12.224 12.224 0 0 1-4.08 9.53c-2.993 2.667-7.16 4-12.5 4-4.94 0-8.903-.95-11.89-2.85l1.7-6.13a20.186 20.186 0 0 0 10.63 2.93 9.999 9.999 0 0 0 6.47-1.88 6.104 6.104 0 0 0 2.31-5 6.39 6.39 0 0 0-1.9-4.7 17.78 17.78 0 0 0-6.31-3.56c-8.04-3-12.06-7.387-12.06-13.16a11.655 11.655 0 0 1 4.23-9.28c2.8-2.413 6.537-3.62 11.21-3.62a22.314 22.314 0 0 1 10.42 2.17l-1.84 6a18.051 18.051 0 0 0-8.79-2.11 8.882 8.882 0 0 0-6.05 1.9 5.453 5.453 0 0 0-1.84 4.16 5.605 5.605 0 0 0 2.11 4.49 24.008 24.008 0 0 0 6.67 3.55c3.953 1.58 6.86 3.44 8.72 5.58a11.695 11.695 0 0 1 2.79 7.98zm95.34-1.91a9.573 9.573 0 0 0 3.2 7.49 10.912 10.912 0 0 0 7.21 2.31c3.048.039 6.076-.49 8.93-1.56l1.15 5.1a27.549 27.549 0 0 1-11.1 2c-5.127 0-9.157-1.51-12.09-4.53-2.933-3.02-4.397-7.073-4.39-12.16A18.943 18.943 0 0 1 392.91 77a14.08 14.08 0 0 1 11.57-5.31c4.767 0 8.377 1.77 10.83 5.31a17.878 17.878 0 0 1 2.93 10.47 17.475 17.475 0 0 1-.27 3.34h-22.06zm-20.72 14.81h-7.35l.07-22.67c0-3.82-.1-7.29-.28-10.42h6.41l.27 6.33h.2a11.263 11.263 0 0 1 3.68-5.24 8.894 8.894 0 0 1 5.31-1.77c.616-.001 1.231.042 1.84.13l.01 7.02a12.285 12.285 0 0 0-2.32-.21 7.005 7.005 0 0 0-6 2.93 11.002 11.002 0 0 0-1.84 6.54v17.36zM182 105.58h-7.83l-4.34-13.48h-14.92l-4.08 13.48h-7.63L158 59.69h9.12L182 105.58zM353.82 89a14.79 14.79 0 0 0-2-7.85 7.27 7.27 0 0 0-6.6-4 7.38 7.38 0 0 0-6.74 4 15.174 15.174 0 0 0-2 8 14.88 14.88 0 0 0 2 7.85 7.53 7.53 0 0 0 6.624 3.96 7.528 7.528 0 0 0 6.656-4.02 15.006 15.006 0 0 0 2.06-7.94zm-141.37-.1a13.603 13.603 0 0 0-2.18-8 7.526 7.526 0 0 0-6.4-3.27 7.624 7.624 0 0 0-4.93 1.81A8.368 8.368 0 0 0 196 84.2c-.198.735-.312 1.49-.34 2.25V92a8.834 8.834 0 0 0 2.22 6.1 7.323 7.323 0 0 0 5.75 2.49c2.558.104 5-1.104 6.47-3.2a14.162 14.162 0 0 0 2.35-8.49zm38.06 0a13.682 13.682 0 0 0-2.18-8 7.526 7.526 0 0 0-6.4-3.27 7.65 7.65 0 0 0-4.93 1.84 8.301 8.301 0 0 0-2.89 4.73 9.517 9.517 0 0 0-.34 2.25V92a8.873 8.873 0 0 0 2.21 6.1 7.336 7.336 0 0 0 5.76 2.49 7.537 7.537 0 0 0 6.46-3.2 14.164 14.164 0 0 0 2.32-8.49h-.01zm-88.18-23.09h-.13c-.447 1.953-1.173 4.833-2.18 8.64l-3.81 12h12.32l-3.88-12c-.41-1.22-1.18-4.11-2.32-8.64zm248.91 19.75a10.004 10.004 0 0 0-1.42-5.65 6.448 6.448 0 0 0-5.86-3.06 7.006 7.006 0 0 0-5.86 3 10.934 10.934 0 0 0-2.17 5.71h15.31zM297.9 40.65a5.4 5.4 0 0 1-5.22 3 6.104 6.104 0 0 1-4.88-2.31 9 9 0 0 1-1.94-6 9.423 9.423 0 0 1 2.14-6.4 6.454 6.454 0 0 1 5-2.27c2.187 0 3.717.733 4.59 2.2h.06v-9.33h3.62v19.34c.02 1.58.06 3.04.15 4.38h-3.21l-.21-2.61h-.1zM263.39 35a8.886 8.886 0 0 1-2.15 6.15 7.644 7.644 0 0 1-6 2.48 7.275 7.275 0 0 1-5.71-2.38 8.674 8.674 0 0 1-2.12-6 8.816 8.816 0 0 1 2.19-6.18 7.575 7.575 0 0 1 5.9-2.41 7.444 7.444 0 0 1 5.81 2.34 8.605 8.605 0 0 1 2.08 6zm68.94 0a8.884 8.884 0 0 1-2.14 6.15 7.665 7.665 0 0 1-6 2.48 7.265 7.265 0 0 1-5.7-2.38 8.624 8.624 0 0 1-2.12-6 8.775 8.775 0 0 1 2.19-6.18 7.565 7.565 0 0 1 5.9-2.41 7.445 7.445 0 0 1 5.8 2.34 8.605 8.605 0 0 1 2.07 6zm-146.02 0a8.886 8.886 0 0 1-2.15 6.15 7.645 7.645 0 0 1-5.95 2.48 7.275 7.275 0 0 1-5.71-2.38 8.674 8.674 0 0 1-2.12-6 8.816 8.816 0 0 1 2.19-6.18 7.575 7.575 0 0 1 5.9-2.41 7.446 7.446 0 0 1 5.76 2.34 8.605 8.605 0 0 1 2.08 6zm91.05 6.39h-.1a5.575 5.575 0 0 1-4.75 2.24 4.912 4.912 0 0 1-3.71-1.47 4.642 4.642 0 0 1-1.27-3.32 5.076 5.076 0 0 1 2.47-4.55 13 13 0 0 1 7-1.54v-.3c0-2.14-1.123-3.21-3.37-3.21a7.499 7.499 0 0 0-4.24 1.21l-.73-2.38a10.444 10.444 0 0 1 5.57-1.4c4.253 0 6.38 2.24 6.38 6.72v6a24.692 24.692 0 0 0 .27 3.87h-3.25l-.27-1.87zM372.11 27h4l-.02 2.71h-4v7.9c0 2 .7 3 2.11 3a6.656 6.656 0 0 0 1.61-.17l.09 2.74a8.095 8.095 0 0 1-2.81.4 4.305 4.305 0 0 1-3.34-1.3c-.81-.87-1.21-2.33-1.21-4.38v-8.2h-2.37V27h2.37v-3l3.57-1v4zM404 36a4.76 4.76 0 0 0 1.57 3.68 5.381 5.381 0 0 0 3.55 1.14c1.495.017 2.98-.244 4.38-.77l.57 2.51a13.58 13.58 0 0 1-5.46 1 7.873 7.873 0 0 1-5.93-2.22 8.246 8.246 0 0 1-2.16-6 9.326 9.326 0 0 1 2-6.12 6.916 6.916 0 0 1 5.69-2.61 6.006 6.006 0 0 1 5.31 2.61 8.781 8.781 0 0 1 1.48 5.14 8.5 8.5 0 0 1-.13 1.64H404zm-237.9-4.55c0 4.06-1.217 7.117-3.65 9.17-2.247 1.893-5.447 2.84-9.6 2.84a44.346 44.346 0 0 1-5.28-.27V21a39.009 39.009 0 0 1 6.22-.47c4 0 6.92.86 8.93 2.58 2.253 1.927 3.38 4.707 3.38 8.34zm175.17 11.86h-3.61V31.65c0-1.43 0-3-.13-4.65h3.17l.17 2.54h.1a5.232 5.232 0 0 1 1.87-2 6.123 6.123 0 0 1 3.28-.91 5.182 5.182 0 0 1 3.78 1.47 7.143 7.143 0 0 1 1.87 5.38l-.01 9.78h-3.61V34c0-2.873-1.093-4.31-3.28-4.31a3.233 3.233 0 0 0-2.6 1.19 4.176 4.176 0 0 0-1 2.79v9.64zm-119.63 0H218V31.65c0-1.43 0-3-.13-4.65h3.17l.17 2.54h.1a5.172 5.172 0 0 1 1.88-2 6.06 6.06 0 0 1 3.27-.91 5.221 5.221 0 0 1 3.79 1.47 7.143 7.143 0 0 1 1.87 5.38l.02 9.78h-3.62V34c0-2.873-1.09-4.31-3.27-4.31a3.273 3.273 0 0 0-2.61 1.19 4.176 4.176 0 0 0-1 2.79v9.64zM198 43.26h-3.35L189.85 27h3.71l1.84 7.73c.45 1.83.81 3.57 1.11 5.22h.06c.273-1.333.72-3.063 1.34-5.19l2.31-7.76h2.94l2.21 7.6c.54 1.85 1 3.63 1.31 5.35h.1a49.506 49.506 0 0 1 1.1-5.35l2-7.6h3.52l-5.08 16.26H205l-2.1-7.06a51.63 51.63 0 0 1-1.31-5.2h-.06a39.497 39.497 0 0 1-1.31 5.25L198 43.26zm186.72-.02h-3.61v-23.7h3.61v9.8h.06a5.477 5.477 0 0 1 4.89-2.67 5.07 5.07 0 0 1 3.72 1.47 7.4 7.4 0 0 1 1.84 5.45v9.67h-3.62V34c0-2.92-1.093-4.38-3.28-4.38a3.45 3.45 0 0 0-3.44 2.54c-.12.423-.178.861-.17 1.3v9.78zm-142.61.02h-3.61V19.54h3.61v23.72zm86.47-8.15a7.289 7.289 0 0 0-1-3.85 3.566 3.566 0 0 0-3.24-2 3.645 3.645 0 0 0-3.32 2 7.523 7.523 0 0 0-1 3.92 7.422 7.422 0 0 0 1 3.86 3.704 3.704 0 0 0 3.265 1.959 3.704 3.704 0 0 0 3.265-1.959 7.344 7.344 0 0 0 1.03-3.93zm-68.95 0a7.289 7.289 0 0 0-1-3.85 3.566 3.566 0 0 0-3.24-2 3.616 3.616 0 0 0-3.31 2 7.431 7.431 0 0 0-1 3.92 7.324 7.324 0 0 0 1 3.86 3.705 3.705 0 0 0 3.26 1.95 3.705 3.705 0 0 0 3.26-1.95 7.344 7.344 0 0 0 1.03-3.93zm17.5 2.56v-2.51c-4-.06-6 1.033-6 3.28-.06.706.193 1.405.69 1.91a2.533 2.533 0 0 0 1.76.63 3.62 3.62 0 0 0 2.21-.75 3.104 3.104 0 0 0 1.26-1.92c.05-.21.076-.424.08-.64zm-94.57-2.56a7.39 7.39 0 0 0-1-3.85 3.575 3.575 0 0 0-3.25-2 3.626 3.626 0 0 0-3.31 2 7.431 7.431 0 0 0-1 3.92 7.338 7.338 0 0 0 1 3.82 3.705 3.705 0 0 0 3.26 1.95 3.705 3.705 0 0 0 3.26-1.95 7.351 7.351 0 0 0 1.04-3.89zm115.11 1.29v-2.71a5.07 5.07 0 0 0-.1-1.14 4.108 4.108 0 0 0-1.31-2.19 3.532 3.532 0 0 0-2.41-.88 3.703 3.703 0 0 0-3.18 1.6 6.88 6.88 0 0 0-1.16 4.12 6.42 6.42 0 0 0 1.11 3.91 3.723 3.723 0 0 0 3.16 1.61 3.521 3.521 0 0 0 2.86-1.34 4.503 4.503 0 0 0 1.03-2.98zm-135.38-4.85a8.276 8.276 0 0 0-2.09-6.06 8.275 8.275 0 0 0-6.11-2.1 16.03 16.03 0 0 0-2.91.23v16.86c.81.086 1.625.119 2.44.1a8.596 8.596 0 0 0 6.41-2.3c1.5-1.54 2.26-3.79 2.26-6.73zm249.26 1.87a4.836 4.836 0 0 0-.7-2.77 3.134 3.134 0 0 0-2.87-1.51 3.442 3.442 0 0 0-2.88 1.47 5.438 5.438 0 0 0-1.1 2.81h7.55z" fill="#f6f6f9"/></svg>
