<?xml version="1.0" encoding="UTF-8" standalone="no"?><!DOCTYPE svg PUBLIC "-//W3C//DTD SVG 1.1//EN" "http://www.w3.org/Graphics/SVG/1.1/DTD/svg11.dtd"><svg width="100%" height="100%" viewBox="0 0 460 132" version="1.1" xmlns="http://www.w3.org/2000/svg" xmlns:xlink="http://www.w3.org/1999/xlink" xml:space="preserve" xmlns:serif="http://www.serif.com/" style="fill-rule:evenodd;clip-rule:evenodd;stroke-linejoin:round;stroke-miterlimit:1.41421;"><path d="M459.2,118.57c-0.005,7.239 -5.961,13.195 -13.2,13.2l-432.76,0c-0.007,0 -0.013,0 -0.02,0c-7.245,0 -13.209,-5.955 -13.22,-13.2l0,-105.34c0.005,-7.259 5.981,-13.23 13.24,-13.23l432.76,0c7.252,0 13.22,5.968 13.22,13.22c0,0.003 0,0.007 0,0.01l0,105.34l-0.02,0Z" style="fill-rule:nonzero;"/><path d="M100.84,65.16c0.013,7.734 4.668,14.746 11.79,17.76c-1.371,4.461 -3.44,8.677 -6.13,12.49c-3.62,5.41 -7.42,10.69 -13.42,10.79c-5.84,0.13 -7.75,-3.44 -14.51,-3.44c-6.76,0 -8.73,3.36 -14.46,3.57c-5.73,0.21 -10.1,-5.77 -13.85,-11.12c-7.5,-10.94 -13.31,-30.82 -5.5,-44.35c3.666,-6.581 10.54,-10.765 18.07,-11c5.74,-0.13 11.12,3.87 14.58,3.87c3.46,0 10.04,-4.77 16.82,-4.06c6.446,0.201 12.431,3.437 16.13,8.72c-0.42,0.25 -9.62,5.66 -9.52,16.77Zm-11.04,-32.68c3.278,-3.937 4.893,-9.002 4.5,-14.11c-4.36,0.19 -9.82,3 -13,6.71c-2.77,3.25 -5.26,8.57 -4.62,13.58c4.94,0.34 9.98,-2.47 13.12,-6.18Z" style="fill:#fff;"/><path d="M233.76,119.07l-7.36,0l0,-35.68c0,-3.54 -0.09,-7.18 -0.27,-10.9l6.47,0l0.41,5.24l0.14,0c2.45,-4 6.16,-5.92 11.16,-5.92c3.797,-0.049 7.411,1.662 9.78,4.63c2.607,3.093 3.91,7.157 3.91,12.19c0,5.633 -1.523,10.08 -4.57,13.34c-2.588,2.851 -6.29,4.443 -10.14,4.36c-4.36,0 -7.493,-1.567 -9.4,-4.7l-0.13,0l0,17.44Zm-38.06,0l-7.35,0l0,-35.68c0,-3.54 -0.09,-7.18 -0.27,-10.9l6.46,0l0.41,5.24l0.14,0c2.447,-3.947 6.17,-5.92 11.17,-5.92c3.785,-0.043 7.384,1.668 9.74,4.63c2.633,3.093 3.947,7.157 3.94,12.19c0,5.633 -1.52,10.08 -4.56,13.34c-2.588,2.851 -6.29,4.443 -10.14,4.36c-4.36,0 -7.493,-1.567 -9.4,-4.7l-0.14,0l0,17.44Zm165.75,-30.31c0,5.087 -1.453,9.263 -4.36,12.53c-3.104,3.37 -7.543,5.201 -12.12,5c-4.86,0 -8.73,-1.61 -11.61,-4.83c-2.938,-3.351 -4.497,-7.696 -4.36,-12.15c0,-5.127 1.487,-9.327 4.46,-12.6c2.973,-3.273 6.973,-4.907 12,-4.9c4.425,-0.183 8.714,1.588 11.72,4.84c2.847,3.133 4.27,7.17 4.27,12.11Zm-44.67,-16.27l8.1,0l0,5.51l-8.1,0l0,16.08c0,4.08 1.42,6.13 4.29,6.13c1.096,0.02 2.191,-0.094 3.26,-0.34l0.21,5.58c-1.845,0.6 -3.781,0.874 -5.72,0.81c-2.546,0.147 -5.033,-0.821 -6.81,-2.65c-1.627,-1.767 -2.443,-4.74 -2.45,-8.92l0,-16.69l-4.83,0l0,-5.51l4.83,0l0,-6.06l7.22,-2.18l0,8.24Zm-16.21,20.23c0.122,3.623 -1.375,7.118 -4.08,9.53c-2.993,2.667 -7.16,4 -12.5,4c-4.94,0 -8.903,-0.95 -11.89,-2.85l1.7,-6.13c3.202,1.944 6.884,2.959 10.63,2.93c2.309,0.141 4.596,-0.524 6.47,-1.88c1.52,-1.203 2.379,-3.062 2.31,-5c0.042,-1.761 -0.646,-3.463 -1.9,-4.7c-1.836,-1.607 -3.985,-2.819 -6.31,-3.56c-8.04,-3 -12.06,-7.387 -12.06,-13.16c-0.091,-3.577 1.471,-7.003 4.23,-9.28c2.8,-2.413 6.537,-3.62 11.21,-3.62c3.597,-0.128 7.173,0.617 10.42,2.17l-1.84,6c-2.703,-1.437 -5.729,-2.164 -8.79,-2.11c-2.181,-0.133 -4.336,0.544 -6.05,1.9c-1.19,1.052 -1.862,2.572 -1.84,4.16c-0.034,1.742 0.747,3.404 2.11,4.49c2.022,1.528 4.273,2.726 6.67,3.55c3.953,1.58 6.86,3.44 8.72,5.58c1.892,2.218 2.888,5.066 2.79,7.98Zm95.34,-1.91c-0.102,2.847 1.072,5.596 3.2,7.49c2.05,1.606 4.609,2.425 7.21,2.31c3.048,0.039 6.076,-0.49 8.93,-1.56l1.15,5.1c-3.522,1.425 -7.302,2.106 -11.1,2c-5.127,0 -9.157,-1.51 -12.09,-4.53c-2.933,-3.02 -4.397,-7.073 -4.39,-12.16c-0.164,-4.507 1.287,-8.927 4.09,-12.46c2.787,-3.51 7.091,-5.486 11.57,-5.31c4.767,0 8.377,1.77 10.83,5.31c2.04,3.101 3.064,6.761 2.93,10.47c0.017,1.119 -0.073,2.238 -0.27,3.34l-22.06,0Zm-20.72,14.81l-7.35,0l0.07,-22.67c0,-3.82 -0.1,-7.29 -0.28,-10.42l6.41,0l0.27,6.33l0.2,0c0.694,-2.066 1.972,-3.886 3.68,-5.24c1.533,-1.146 3.396,-1.767 5.31,-1.77c0.616,-0.001 1.231,0.042 1.84,0.13l0.01,7.02c-0.765,-0.143 -1.542,-0.214 -2.32,-0.21c-2.365,-0.102 -4.626,1.003 -6,2.93c-1.288,1.931 -1.932,4.221 -1.84,6.54l0,17.36Zm-193.19,-0.04l-7.83,0l-4.34,-13.48l-14.92,0l-4.08,13.48l-7.63,0l14.8,-45.89l9.12,0l14.88,45.89Zm171.82,-16.58c0.077,-2.752 -0.616,-5.471 -2,-7.85c-1.248,-2.485 -3.819,-4.043 -6.6,-4c-2.824,-0.071 -5.449,1.488 -6.74,4c-1.392,2.431 -2.085,5.2 -2,8c-0.072,2.751 0.62,5.469 2,7.85c1.309,2.435 3.859,3.96 6.624,3.96c2.789,0 5.358,-1.551 6.656,-4.02c1.411,-2.404 2.124,-5.154 2.06,-7.94Zm-141.37,-0.1c0.124,-2.828 -0.639,-5.626 -2.18,-8c-1.439,-2.103 -3.853,-3.336 -6.4,-3.27c-1.805,0 -3.553,0.642 -4.93,1.81c-1.497,1.202 -2.535,2.883 -2.94,4.76c-0.198,0.735 -0.312,1.49 -0.34,2.25l0,5.55c-0.061,2.241 0.733,4.423 2.22,6.1c1.446,1.649 3.558,2.564 5.75,2.49c2.558,0.104 5,-1.104 6.47,-3.2c1.666,-2.508 2.489,-5.482 2.35,-8.49Zm38.06,0c0.118,-2.828 -0.643,-5.623 -2.18,-8c-1.439,-2.103 -3.853,-3.336 -6.4,-3.27c-1.809,0.011 -3.556,0.663 -4.93,1.84c-1.477,1.199 -2.497,2.869 -2.89,4.73c-0.203,0.734 -0.317,1.489 -0.34,2.25l0,5.55c-0.06,2.239 0.73,4.419 2.21,6.1c1.449,1.65 3.565,2.565 5.76,2.49c2.555,0.1 4.992,-1.107 6.46,-3.2c1.655,-2.511 2.468,-5.486 2.32,-8.49l-0.01,0Zm-88.18,-23.09l-0.13,0c-0.447,1.953 -1.173,4.833 -2.18,8.64l-3.81,12l12.32,0l-3.88,-12c-0.41,-1.22 -1.18,-4.11 -2.32,-8.64Zm248.91,19.75c0.098,-1.982 -0.397,-3.95 -1.42,-5.65c-1.239,-2.018 -3.496,-3.197 -5.86,-3.06c-2.329,-0.038 -4.529,1.088 -5.86,3c-1.251,1.659 -2.004,3.639 -2.17,5.71l15.31,0Z" style="fill:#fff;"/><path d="M297.9,40.65c-0.965,1.965 -3.036,3.155 -5.22,3c-1.896,0.031 -3.702,-0.824 -4.88,-2.31c-1.349,-1.7 -2.038,-3.832 -1.94,-6c-0.101,-2.324 0.661,-4.605 2.14,-6.4c1.245,-1.463 3.08,-2.296 5,-2.27c2.187,0 3.717,0.733 4.59,2.2l0.06,0l0,-9.33l3.62,0l0,19.34c0.02,1.58 0.06,3.04 0.15,4.38l-3.21,0l-0.21,-2.61l-0.1,0Zm-34.51,-5.65c0.088,2.248 -0.681,4.447 -2.15,6.15c-1.531,1.677 -3.732,2.586 -6,2.48c-2.161,0.096 -4.257,-0.777 -5.71,-2.38c-1.441,-1.658 -2.199,-3.804 -2.12,-6c-0.092,-2.264 0.693,-4.479 2.19,-6.18c1.515,-1.631 3.676,-2.514 5.9,-2.41c2.185,-0.113 4.313,0.744 5.81,2.34c1.433,1.661 2.177,3.809 2.08,6Zm68.94,0c0.091,2.246 -0.674,4.445 -2.14,6.15c-1.533,1.674 -3.733,2.584 -6,2.48c-2.158,0.095 -4.25,-0.779 -5.7,-2.38c-1.446,-1.656 -2.204,-3.804 -2.12,-6c-0.096,-2.265 0.689,-4.481 2.19,-6.18c1.515,-1.633 3.676,-2.515 5.9,-2.41c2.182,-0.11 4.305,0.747 5.8,2.34c1.429,1.662 2.17,3.81 2.07,6Zm-146.02,0c0.088,2.248 -0.681,4.447 -2.15,6.15c-1.52,1.663 -3.699,2.571 -5.95,2.48c-2.161,0.096 -4.257,-0.777 -5.71,-2.38c-1.441,-1.658 -2.199,-3.804 -2.12,-6c-0.092,-2.264 0.693,-4.479 2.19,-6.18c1.515,-1.631 3.676,-2.514 5.9,-2.41c2.168,-0.098 4.274,0.758 5.76,2.34c1.433,1.661 2.177,3.809 2.08,6Zm91.05,6.39l-0.1,0c-1.109,1.492 -2.894,2.333 -4.75,2.24c-1.388,0.057 -2.738,-0.477 -3.71,-1.47c-0.847,-0.894 -1.304,-2.089 -1.27,-3.32c-0.071,-1.852 0.878,-3.601 2.47,-4.55c2.143,-1.159 4.569,-1.693 7,-1.54l0,-0.3c0,-2.14 -1.123,-3.21 -3.37,-3.21c-1.502,-0.031 -2.98,0.391 -4.24,1.21l-0.73,-2.38c1.689,-0.978 3.619,-1.463 5.57,-1.4c4.253,0 6.38,2.24 6.38,6.72l0,6c-0.012,1.295 0.079,2.589 0.27,3.87l-3.25,0l-0.27,-1.87Zm94.75,-14.39l4,0l-0.02,2.71l-4,0l0,7.9c0,2 0.7,3 2.11,3c0.542,0.009 1.082,-0.048 1.61,-0.17l0.09,2.74c-0.906,0.298 -1.857,0.433 -2.81,0.4c-1.249,0.073 -2.469,-0.402 -3.34,-1.3c-0.81,-0.87 -1.21,-2.33 -1.21,-4.38l0,-8.2l-2.37,0l0,-2.7l2.37,0l0,-3l3.57,-1l0,4Zm31.89,9c-0.043,1.397 0.532,2.744 1.57,3.68c1.009,0.791 2.269,1.195 3.55,1.14c1.495,0.017 2.98,-0.244 4.38,-0.77l0.57,2.51c-1.732,0.706 -3.591,1.046 -5.46,1c-2.199,0.123 -4.352,-0.683 -5.93,-2.22c-1.495,-1.628 -2.274,-3.792 -2.16,-6c-0.081,-2.212 0.628,-4.383 2,-6.12c1.37,-1.727 3.487,-2.698 5.69,-2.61c2.103,-0.124 4.123,0.869 5.31,2.61c1.016,1.517 1.533,3.315 1.48,5.14c0.01,0.55 -0.034,1.099 -0.13,1.64l-10.87,0Zm-237.9,-4.55c0,4.06 -1.217,7.117 -3.65,9.17c-2.247,1.893 -5.447,2.84 -9.6,2.84c-1.764,0.015 -3.527,-0.075 -5.28,-0.27l0,-22.19c2.057,-0.322 4.137,-0.48 6.22,-0.47c4,0 6.92,0.86 8.93,2.58c2.253,1.927 3.38,4.707 3.38,8.34Zm175.17,11.86l-3.61,0l0,-11.66c0,-1.43 0,-3 -0.13,-4.65l3.17,0l0.17,2.54l0.1,0c0.435,-0.821 1.08,-1.511 1.87,-2c0.985,-0.607 2.123,-0.923 3.28,-0.91c1.407,-0.044 2.773,0.487 3.78,1.47c1.342,1.456 2.02,3.406 1.87,5.38l-0.01,9.78l-3.61,0l0,-9.26c0,-2.873 -1.093,-4.31 -3.28,-4.31c-1.004,-0.029 -1.966,0.411 -2.6,1.19c-0.663,0.776 -1.019,1.769 -1,2.79l0,9.64Zm-119.63,0l-3.64,0l0,-11.66c0,-1.43 0,-3 -0.13,-4.65l3.17,0l0.17,2.54l0.1,0c0.435,-0.824 1.085,-1.515 1.88,-2c0.981,-0.609 2.116,-0.924 3.27,-0.91c1.409,-0.042 2.778,0.488 3.79,1.47c1.342,1.456 2.02,3.406 1.87,5.38l0.02,9.78l-3.62,0l0,-9.26c0,-2.873 -1.09,-4.31 -3.27,-4.31c-1.006,-0.026 -1.97,0.413 -2.61,1.19c-0.663,0.776 -1.019,1.769 -1,2.79l0,9.64Zm-23.64,-0.05l-3.35,0l-4.8,-16.26l3.71,0l1.84,7.73c0.45,1.83 0.81,3.57 1.11,5.22l0.06,0c0.273,-1.333 0.72,-3.063 1.34,-5.19l2.31,-7.76l2.94,0l2.21,7.6c0.54,1.85 1,3.63 1.31,5.35l0.1,0c0.268,-1.802 0.635,-3.588 1.1,-5.35l2,-7.6l3.52,0l-5.08,16.26l-3.32,0l-2.1,-7.06c-0.526,-1.709 -0.964,-3.445 -1.31,-5.2l-0.06,0c-0.316,1.778 -0.754,3.532 -1.31,5.25l-2.22,7.01Zm186.72,-0.02l-3.61,0l0,-23.7l3.61,0l0,9.8l0.06,0c1.019,-1.713 2.898,-2.739 4.89,-2.67c1.388,-0.041 2.734,0.491 3.72,1.47c1.323,1.494 1.987,3.46 1.84,5.45l0,9.67l-3.62,0l0,-9.26c0,-2.92 -1.093,-4.38 -3.28,-4.38c-1.592,-0.055 -3.024,1.002 -3.44,2.54c-0.12,0.423 -0.178,0.861 -0.17,1.3l0,9.78Zm-142.61,0.02l-3.61,0l0,-23.72l3.61,0l0,23.72Zm86.47,-8.15c0.03,-1.351 -0.316,-2.684 -1,-3.85c-0.602,-1.235 -1.867,-2.015 -3.24,-2c-1.397,-0.027 -2.691,0.753 -3.32,2c-0.685,1.191 -1.031,2.547 -1,3.92c-0.025,1.354 0.321,2.689 1,3.86c0.642,1.204 1.9,1.959 3.265,1.959c1.365,0 2.623,-0.755 3.265,-1.959c0.706,-1.187 1.063,-2.549 1.03,-3.93Zm-68.95,0c0.03,-1.351 -0.316,-2.684 -1,-3.85c-0.602,-1.235 -1.867,-2.015 -3.24,-2c-1.395,-0.03 -2.688,0.751 -3.31,2c-0.689,1.189 -1.036,2.546 -1,3.92c-0.03,1.354 0.316,2.691 1,3.86c0.644,1.199 1.899,1.95 3.26,1.95c1.361,0 2.616,-0.751 3.26,-1.95c0.706,-1.187 1.063,-2.549 1.03,-3.93Zm17.5,2.56l0,-2.51c-4,-0.06 -6,1.033 -6,3.28c-0.06,0.706 0.193,1.405 0.69,1.91c0.485,0.427 1.115,0.652 1.76,0.63c0.799,0.001 1.576,-0.263 2.21,-0.75c0.65,-0.455 1.101,-1.143 1.26,-1.92c0.05,-0.21 0.076,-0.424 0.08,-0.64Zm-94.57,-2.56c0.025,-1.35 -0.321,-2.682 -1,-3.85c-0.605,-1.236 -1.874,-2.017 -3.25,-2c-1.394,-0.028 -2.686,0.753 -3.31,2c-0.689,1.189 -1.036,2.546 -1,3.92c-0.022,1.341 0.324,2.662 1,3.82c0.644,1.199 1.899,1.95 3.26,1.95c1.361,0 2.616,-0.751 3.26,-1.95c0.702,-1.174 1.062,-2.522 1.04,-3.89Zm115.11,1.29l0,-2.71c0.01,-0.383 -0.024,-0.765 -0.1,-1.14c-0.193,-0.85 -0.652,-1.618 -1.31,-2.19c-0.664,-0.585 -1.525,-0.899 -2.41,-0.88c-1.262,-0.045 -2.464,0.559 -3.18,1.6c-0.815,1.215 -1.221,2.658 -1.16,4.12c-0.063,1.389 0.326,2.761 1.11,3.91c0.713,1.036 1.903,1.642 3.16,1.61c1.111,0.03 2.172,-0.467 2.86,-1.34c0.691,-0.836 1.057,-1.895 1.03,-2.98Zm-135.38,-4.85c0.146,-2.218 -0.608,-4.404 -2.09,-6.06c-1.667,-1.499 -3.874,-2.257 -6.11,-2.1c-0.975,-0.012 -1.949,0.065 -2.91,0.23l0,16.86c0.81,0.086 1.625,0.119 2.44,0.1c2.361,0.149 4.682,-0.684 6.41,-2.3c1.5,-1.54 2.26,-3.79 2.26,-6.73Zm249.26,1.87c0.051,-0.973 -0.193,-1.938 -0.7,-2.77c-0.6,-0.997 -1.709,-1.58 -2.87,-1.51c-1.144,-0.02 -2.225,0.532 -2.88,1.47c-0.624,0.814 -1.006,1.788 -1.1,2.81l7.55,0Z" style="fill:#fff;"/></svg>