<svg role="image" viewBox="0 0 451.59 103.33" xmlns="http://www.w3.org/2000/svg">
    <path d="M42.33 0H30.05L.33 78.81l-.33.87h12.56l7.66-21.24h32l7.56 21.24h12.6L42.49.42zM24.09 47.73l12.1-33.43L48.3 47.73zM99.14 23a24.72 24.72 0 0 0-19.36 8.65 30.27 30.27 0 0 0-7.56 20.57c0 8.38 2.62 15.42 7.78 20.92s12 8.31 20.24 8.31a25.93 25.93 0 0 0 15.15-4.33 24.75 24.75 0 0 0 8.87-10.74l.26-.6-10.17-4.22-.26.59c-2.47 5.92-7.07 8.8-14.07 8.8a15.92 15.92 0 0 1-11.22-4.53 17.43 17.43 0 0 1-5.17-11.71h42.29l.15-2.5c0-8.81-2.47-16-7.34-21.24S107.25 23 99.14 23zM84.45 45.1a17.07 17.07 0 0 1 5.2-8.27 13.92 13.92 0 0 1 9.28-3.36c4.89 0 8.62 1.34 11.07 4a14.14 14.14 0 0 1 4 7.67zM165.63 24.79a20 20 0 0 0-7.81-1.37 18.66 18.66 0 0 0-9.58 2.95 15.13 15.13 0 0 0-5.76 5.72v-7.35h-10.93v54.94h11.37v-30a15 15 0 0 1 4-10.88 12.45 12.45 0 0 1 9.23-4.12 14.53 14.53 0 0 1 5.13.72l.59.23L166.22 25zM193.18 23c-8.16 0-15 2.81-20.28 8.36s-8 12.55-8 20.86 2.68 15.33 8 20.87 12.11 8.36 20.28 8.36 15-2.82 20.3-8.36 8-12.57 8-20.87-2.68-15.32-8-20.86S201.35 23 193.18 23zm11.87 42.83a16.3 16.3 0 0 1-23.72 0c-3.33-3.39-5-8-5-13.61s1.69-10.21 5-13.62a16.3 16.3 0 0 1 23.72 0c3.32 3.4 5 8 5 13.62s-1.68 10.21-5 13.6zM257.35 23A23.72 23.72 0 0 0 246 25.69a20.23 20.23 0 0 0-6.76 5.67v-6.62h-10.9v78.59h11.37V79l-.34-5.81a20.1 20.1 0 0 0 6.63 5.54 23.57 23.57 0 0 0 11.31 2.71c7.08 0 13.28-2.83 18.43-8.42s7.72-12.57 7.72-20.81-2.6-15.24-7.72-20.8S264.44 23 257.35 23zm9.93 42.84a15.47 15.47 0 0 1-11.58 5.11 15.31 15.31 0 0 1-11.63-5c-3.18-3.36-4.8-8-4.8-13.68s1.62-10.31 4.8-13.68a15.78 15.78 0 0 1 23.21 0c3.22 3.41 4.86 8 4.86 13.63s-1.64 10.21-4.86 13.61zM290.32 0h11.36v79.68h-11.36zM333.55 23c-6.1 0-11.09 1.42-14.84 4.23s-6.28 5.9-7.55 9.22l-.23.58 10.4 4.45.23-.64a10.07 10.07 0 0 1 4.59-5.36 14.92 14.92 0 0 1 7.62-2 14 14 0 0 1 9.53 3.41 11.39 11.39 0 0 1 3.84 9v.45a30.73 30.73 0 0 0-13.92-2.85c-6.74 0-12.5 1.72-17.13 5.11A16.8 16.8 0 0 0 309 62.83a17.06 17.06 0 0 0 6 13.53 21.94 21.94 0 0 0 14.71 5.08c7.46 0 13.31-2.83 17.42-8.42v6.66h10.92V46.63c0-7.45-2.35-13.33-7-17.46S340.53 23 333.55 23zm8.71 43.47a15.88 15.88 0 0 1-10.9 4.48 13 13 0 0 1-7.42-2.19 6.49 6.49 0 0 1-3.1-5.7 8.85 8.85 0 0 1 3.49-6.95c2.36-2 5.94-3 10.64-3 5.36 0 9.45 1.06 12.16 3.16a13.9 13.9 0 0 1-4.87 10.19zM392.73 69.25a10.22 10.22 0 0 1-4.34.82c-4.43 0-6.58-2.66-6.58-8.11V35.23H395V24.74h-13.19V8.32h-11.36v16.42H361v10.49h9.42v27.49c0 5.63 1.55 10.06 4.62 13.15s7.55 4.69 13.32 4.69a21.32 21.32 0 0 0 8.36-1.47l.58-.26-4-9.86zM451.59 52.21c0-8.81-2.48-16-7.35-21.24s-11.48-8-19.58-8a24.73 24.73 0 0 0-19.37 8.65 30.32 30.32 0 0 0-7.56 20.57c0 8.38 2.62 15.41 7.78 20.92s12 8.31 20.24 8.31a25.93 25.93 0 0 0 15.15-4.33 24.91 24.91 0 0 0 8.88-10.74l.25-.6-10.17-4.22-.26.59c-2.46 5.92-7.06 8.8-14.06 8.8a15.94 15.94 0 0 1-11.23-4.52c-3-2.88-4.77-6.81-5.16-11.71h42.28zM410 45.1a16.93 16.93 0 0 1 5.2-8.27 13.92 13.92 0 0 1 9.27-3.36c4.89 0 8.62 1.34 11.08 4a14.16 14.16 0 0 1 4 7.67z"/>
</svg>
